<svg xmlns="http://www.w3.org/2000/svg" width="512" height="512"><path d="M418.123 339.827c-4.222-4.221-11.067-4.221-15.29 0l-8.478 8.478-8.203-22.374 29.676-29.676c4.222-4.222 4.222-11.067 0-15.29l-30.577-30.577c-4.222-4.219-11.067-4.221-15.289 0l-8.419 8.419-8.888-24.242a2095.253 2095.253 0 0 0 93.362-108.703c18.194-23.497 25.407-52.171 26.091-71.171a10.812 10.812 0 0 0-12.278-11.098c-23.468 3.229-48.68 13.984-67.513 28.82a2095.74 2095.74 0 0 0-108.562 93.251l-24.241-8.888 8.419-8.419c4.222-4.222 4.222-11.067 0-15.29l-30.577-30.577c-4.222-4.221-11.067-4.221-15.29 0l-29.677 29.677-22.374-8.203 8.478-8.478c4.222-4.222 4.222-11.067 0-15.29L147.915 69.62c-4.222-4.221-11.067-4.221-15.29 0L102.89 99.356 87 93.53a10.811 10.811 0 0 0-11.365 2.505l-46.84 46.838a10.81 10.81 0 0 0 2.328 17.057l163.751 92.495a2105.392 2105.392 0 0 0-81.644 89.546l-56.799-12.845a10.818 10.818 0 0 0-10.029 2.901l-29.788 29.789a10.813 10.813 0 0 0 1.581 16.595l47.795 32.377c.402.616.866 1.202 1.404 1.741l38.393 38.393a10.886 10.886 0 0 0 1.747 1.414l32.372 47.786a10.815 10.815 0 0 0 8.951 4.748c2.853 0 5.607-1.13 7.644-3.166l29.789-29.789a10.81 10.81 0 0 0 2.899-10.029l-12.845-56.798a2105.333 2105.333 0 0 0 89.546-81.644l92.495 163.751a10.811 10.811 0 0 0 17.057 2.328l46.84-46.839a10.81 10.81 0 0 0 2.505-11.366l-5.826-15.891 29.735-29.735c4.222-4.222 4.222-11.067 0-15.29l-30.573-30.575zm-40.516-66.507l15.289 15.29-14.946 14.947-8.203-22.375 7.86-7.862zm71.158-205.339c-2.482 12.46-7.746 27.28-16.798 40.447a43.368 43.368 0 0 1-15.264-9.88 43.248 43.248 0 0 1-8.155-11.316c12.941-9.506 27.595-15.734 40.217-19.251zm-219.054 57.445L245 140.715l-7.86 7.86-22.375-8.203 14.946-14.946zm-89.438-32.871l15.289 15.289-7.92 7.919-22.374-8.203 15.005-15.005zm-86.126 55.549l31.896-31.896 179.969 65.982a2104.75 2104.75 0 0 0-55.522 54.225L54.147 148.104zM41.159 367.852l16.319-16.32 39.947 9.033c-8.096 9.637-16.078 19.366-23.997 29.145l-32.269-21.858zm109.311 109.31l-21.859-32.269c9.779-7.919 19.509-15.899 29.145-23.997l9.034 39.947-16.32 16.319zm-36.254-48.391l-4.689-4.689 46.362-46.361c4.222-4.222 4.223-11.067 0-15.29-4.223-4.219-11.067-4.221-15.289 0l-46.362 46.361-4.689-4.689c89.814-111.036 191.295-212.927 301.896-303.168 2.771 4.684 6.108 9.04 9.969 12.9a64.969 64.969 0 0 0 16.736 12.102c-90.467 111.005-192.602 212.782-303.934 302.834zm256.002 35.403L281.907 307.83a2106.293 2106.293 0 0 0 54.225-55.523l65.982 179.971-31.896 31.896zm40.544-71.122l-8.203-22.374 7.919-7.919 15.289 15.289-15.005 15.004z" data-original="#000000" class="active-path" data-old_color="#e350b8" fill="#e350b8"/><path d="M209.307 187.638l-40.573-23.058c-5.191-2.95-11.79-1.134-14.74 4.057-2.95 5.191-1.134 11.79 4.057 14.742l40.573 23.058a10.807 10.807 0 0 0 14.741-4.057c2.95-5.192 1.133-11.791-4.058-14.742zM352.252 348.095l-23.059-40.572c-2.951-5.19-9.55-7.008-14.741-4.057-5.19 2.95-7.006 9.55-4.056 14.741l23.059 40.572a10.806 10.806 0 0 0 14.741 4.057c5.19-2.95 7.006-9.55 4.056-14.741zM51.707 257.564c-4.223-4.221-11.067-4.221-15.289 0L3.166 290.817c-4.222 4.222-4.222 11.067 0 15.29 2.111 2.11 4.878 3.166 7.644 3.166s5.534-1.056 7.644-3.166l33.253-33.254c4.222-4.221 4.222-11.067 0-15.289zM47.323 74.776a10.72 10.72 0 0 0-7.643-3.168c-2.886 0-5.6 1.124-7.643 3.168-4.216 4.205-4.216 11.07 0 15.286a10.739 10.739 0 0 0 7.643 3.168c2.886 0 5.611-1.124 7.643-3.169a10.736 10.736 0 0 0 3.168-7.642 10.703 10.703 0 0 0-3.168-7.643zM98.544 23.555c-2.043-2.044-4.757-3.168-7.643-3.168s-5.6 1.123-7.643 3.168L62.62 44.193c-4.216 4.216-4.216 11.07 0 15.286 2.043 2.043 4.757 3.168 7.643 3.168s5.6-1.124 7.643-3.169L98.544 38.84a10.736 10.736 0 0 0 3.168-7.642 10.738 10.738 0 0 0-3.168-7.643zM252.942 486.847a10.747 10.747 0 0 0-7.654-3.166c-2.886 0-5.6 1.124-7.643 3.168-2.043 2.043-3.168 4.757-3.168 7.643s1.124 5.61 3.168 7.642a10.735 10.735 0 0 0 7.643 3.169c2.897 0 5.611-1.124 7.654-3.169 4.206-4.206 4.206-11.07 0-15.287zM304.153 435.638a10.739 10.739 0 0 0-7.643-3.168c-2.887 0-5.6 1.124-7.643 3.168l-20.638 20.638c-4.216 4.216-4.216 11.07 0 15.287 2.043 2.043 4.757 3.168 7.643 3.168s5.6-1.124 7.643-3.168l20.638-20.638c4.216-4.216 4.216-11.081 0-15.287zM434.681 479.119a10.72 10.72 0 0 0-7.643-3.168c-2.886 0-5.6 1.124-7.643 3.168a10.706 10.706 0 0 0-3.168 7.643c0 2.886 1.124 5.6 3.168 7.643 2.043 2.043 4.757 3.168 7.643 3.168s5.611-1.124 7.643-3.168a10.74 10.74 0 0 0 3.168-7.643c0-2.898-1.124-5.61-3.168-7.643zM508.843 404.968a10.745 10.745 0 0 0-7.654-3.168c-2.886 0-5.6 1.124-7.643 3.168l-43.567 43.567c-4.216 4.216-4.216 11.07 0 15.287 2.043 2.043 4.757 3.168 7.643 3.168s5.6-1.124 7.643-3.168l43.578-43.567c2.032-2.044 3.157-4.757 3.157-7.643s-1.125-5.601-3.157-7.644zM468.359 196.844c-4.222-4.221-11.067-4.221-15.29 0l-34.074 34.074c-4.222 4.222-4.222 11.067 0 15.29a10.783 10.783 0 0 0 7.645 3.167c2.766 0 5.534-1.056 7.644-3.167l34.074-34.074c4.223-4.222 4.223-11.067.001-15.29zM342.165 32.767c-4.222-4.221-11.067-4.221-15.289 0l-52.529 52.528c-4.222 4.222-4.222 11.067 0 15.29 2.112 2.11 4.879 3.166 7.645 3.166s5.534-1.056 7.644-3.166l52.528-52.528c4.223-4.222 4.223-11.068.001-15.29zM238.252 9.863c-4.222-4.221-11.067-4.221-15.289 0l-33.529 33.532c-4.222 4.222-4.222 11.067 0 15.29a10.784 10.784 0 0 0 7.644 3.165 10.78 10.78 0 0 0 7.644-3.166l33.529-33.531c4.222-4.222 4.222-11.067.001-15.29z" data-original="#000000" class="active-path" data-old_color="#e350b8" fill="#e350b8"/></svg>