<svg xmlns="http://www.w3.org/2000/svg" height="512" viewBox="0 -15 512 512" width="512"><path d="M414.633 97.367c-27.899-27.898-73.297-27.898-101.2 0-27.898 27.903-27.898 73.301 0 101.2 27.903 27.902 73.297 27.902 101.2 0 27.902-27.903 27.902-73.297 0-101.2zm-90.59 90.594c-22.05-22.05-22.05-57.934 0-79.984 22.05-22.051 57.93-22.051 79.984 0 22.051 22.05 22.051 57.93 0 79.984-22.054 22.05-57.933 22.05-79.984 0zm0 0" data-original="#000000" class="active-path" data-old_color="#514ebc" fill="#514ebc"/><path d="M393.418 118.582c-16.203-16.2-42.566-16.203-58.766 0-16.203 16.203-16.203 42.566 0 58.77 16.2 16.203 42.563 16.203 58.766 0 16.203-16.204 16.203-42.567 0-58.77zm-48.16 48.16c-10.356-10.351-10.356-27.199 0-37.55 10.355-10.356 27.199-10.356 37.555 0 10.351 10.351 10.351 27.199 0 37.55-10.356 10.356-27.2 10.356-37.555 0zm0 0" data-original="#000000" class="active-path" data-old_color="#514ebc" fill="#514ebc"/><path d="M375.672 303.07c18.25-13.386 39.082-29.355 62.469-48.289 32.949-26.672 55.207-61.273 66.156-102.84 9.656-36.656 8.488-72 5.812-95.191-3.343-28.953-25.902-51.512-54.859-54.86-23.191-2.675-58.531-3.843-95.191 5.817-41.567 10.945-76.168 33.203-102.84 66.152-18.93 23.383-34.895 44.215-48.281 62.461-16.196-7.226-34.04-3.543-47.926 10.344-8.742 8.742-27.098 32.992-41.512 56.922-26.64 44.23-21.98 57.086-16.16 62.906 2.37 2.371 5.906 4.535 12.207 4.5L68.5 318.04c-14.402 14.402-14.402 37.836 0 52.238s37.836 14.403 52.238 0l9.164-9.164c5.786-5.785 15.203-5.785 20.989 0 5.785 5.785 5.785 15.2 0 20.985l-37.907 37.906c-14.402 14.402-14.402 37.836 0 52.238 14.403 14.403 37.836 14.403 52.239 0l23.789-23.793a7.497 7.497 0 0 0 0-10.605 7.497 7.497 0 0 0-10.606 0l-23.793 23.789c-8.55 8.555-22.468 8.555-31.023 0-8.55-8.555-8.55-22.469 0-31.024l37.906-37.906c11.637-11.633 11.637-30.562 0-42.2-11.637-11.636-30.566-11.636-42.2 0l-9.167 9.165c-8.555 8.555-22.469 8.555-31.024.004-8.554-8.555-8.554-22.473 0-31.024l67.403-67.402c4.222-2.086 8.855-4.566 13.945-7.5a55.093 55.093 0 0 0 11.309 16.367l13.578 13.578c-20.715 37.012-16.32 48.48-10.914 53.887 5.402 5.402 16.875 9.8 53.887-10.918l13.574 13.578a55.179 55.179 0 0 0 16.367 11.313c-2.938 5.094-5.418 9.726-7.504 13.953-.016.016-.035.027-.05.043L201.75 414.5a7.497 7.497 0 0 0 0 10.605 7.502 7.502 0 0 0 10.61 0l28.648-28.652c-.035 6.305 2.133 9.836 4.504 12.211 5.82 5.82 18.676 10.477 62.902-16.16 23.934-14.414 48.184-32.774 56.926-41.516 13.785-13.789 17.441-31.832 10.332-47.918zm-261.684-47.226c-1.008-2.73.684-15.672 19.754-46.813 13.559-22.133 30.219-44.101 37.88-51.761 8.425-8.426 18.542-11.297 28.179-8.348-16.031 22.402-27.739 40.293-35.922 53.527-6.957 11.246-9.438 24.117-7.719 36.426-27.793 16.441-39.586 17.922-42.172 16.969zm71.086 71.086c-1.008-2.73.684-15.672 19.754-46.813 13.559-22.133 30.219-44.101 37.879-51.762 15.309-15.312 31.77-9.718 41.211-.273 9.445 9.441 15.039 25.902-.273 41.211-7.66 7.664-29.63 24.324-51.762 37.879-31.14 19.074-44.082 20.762-46.809 19.758zm56.57-8.153c22.473-13.945 44.391-30.656 52.61-38.875 18.457-18.457 18.57-44.129.273-62.43-18.297-18.296-43.968-18.183-62.43.278-8.214 8.215-24.925 30.133-38.874 52.61l-10.852-10.852c-13.148-13.149-15.504-33.367-5.734-49.164C192.289 185.03 221 142.445 268.879 83.3c24.625-30.418 56.586-50.973 95-61.09 34.402-9.059 67.738-7.945 89.648-5.414 22 2.539 39.137 19.676 41.68 41.676 1.469 12.742 2.445 29.355 1.238 47.785L419.777 29.59a7.502 7.502 0 0 0-10.609 0 7.497 7.497 0 0 0 0 10.605l85.234 85.235c-1.105 7.437-2.593 15.035-4.613 22.691-10.117 38.418-30.672 70.379-61.086 95-59.148 47.883-101.734 76.594-127.043 92.242-15.8 9.774-36.015 7.414-49.164-5.734zm61.325 59.48c-31.14 19.075-44.082 20.763-46.809 19.759-.953-2.586.524-14.38 16.965-42.176 12.313 1.719 25.18-.762 36.426-7.715 13.238-8.188 31.133-19.895 53.543-35.938 2.976 9.625.129 19.7-8.364 28.192-7.66 7.664-29.628 24.324-51.761 37.879zm0 0" data-original="#000000" class="active-path" data-old_color="#514ebc" fill="#514ebc"/><path d="M63.117 375.723c-14.422-14.418-37.883-14.418-52.304 0-14.418 14.422-14.418 37.882 0 52.3 14.421 14.422 37.882 14.422 52.3.004 14.422-14.422 14.422-37.882.004-52.304zm-41.695 41.695c-8.57-8.57-8.57-22.516 0-31.086s22.515-8.57 31.086 0c8.57 8.57 8.57 22.516 0 31.086s-22.516 8.57-31.086 0zm0 0" data-original="#000000" class="active-path" data-old_color="#514ebc" fill="#514ebc"/></svg>