<svg xmlns="http://www.w3.org/2000/svg" height="512" viewBox="0 0 480 480.108" width="512"><path d="M328.055 128.11c13.254 0 24-10.747 24-24v-48c0-13.258-10.746-24-24-24s-24 10.742-24 24v24h-28.32c17.292-19.22 16.257-48.684-2.34-66.641-18.602-17.957-48.083-17.957-66.68 0-18.602 17.957-19.637 47.422-2.34 66.64h-28.32v-24c0-13.257-10.746-24-24-24s-24 10.743-24 24v48c0 13.254 10.746 24 24 24h21.12l-36.753 117.598a7.993 7.993 0 0 0 1.183 7.133 7.995 7.995 0 0 0 6.45 3.27h24a8 8 0 0 0 0-16h-13.121l35-112h2.12v144c0 13.253 10.747 24 24 24h8a23.862 23.862 0 0 0 16-6.243 23.855 23.855 0 0 0 16 6.242h8c13.255 0 24-10.746 24-24v-16h24a8 8 0 0 0 0-16h-24v-112h2.122l14.246 45.598a7.996 7.996 0 0 0 7.633 5.602 7.803 7.803 0 0 0 2.398-.368 8.001 8.001 0 0 0 5.25-10.007l-12.77-40.825zm-8-72a8 8 0 0 1 16 0v48a8 8 0 0 1-8 8h-8zm-112-8c0-17.676 14.328-32 32-32s32 14.324 32 32c0 17.671-14.328 32-32 32s-32-14.329-32-32zm-64 56v-48a8 8 0 0 1 16 0v56h-8a8 8 0 0 1-8-8zm128 144h-24v-48a8 8 0 0 0-16 0v48h-24v-80h64zm-48 32h-8a8 8 0 0 1-8-8v-8h24v8a8 8 0 0 1-8 8zm48-8a8 8 0 0 1-8 8h-8a8 8 0 0 1-8-8v-8h24zm8-160a8 8 0 0 0-8 8v32h-64v-32a8 8 0 0 0-8-8h-24v-16h128v16zm0 0M448.055 240.11h24a8 8 0 0 0 8-8v-16c-.028-13.247-10.758-23.977-24-24a8 8 0 0 0 0 16 8 8 0 0 1 8 8v8h-24a8 8 0 0 0-8 8v32h-48v-32a8 8 0 0 0-8-8h-24v-8a8 8 0 0 1 8-8 8 8 0 0 0 0-16c-13.246.023-23.973 10.753-24 24v80a8 8 0 0 0 16 0v-56h16v144a23.894 23.894 0 1 0 40 17.758 23.894 23.894 0 0 0 40-17.759v-81.472a23.81 23.81 0 0 0 8 1.472c13.254 0 24-10.746 24-24v-16a8 8 0 0 0-16 0v16a8 8 0 0 1-16 0zm-16 40v80h-16v-48a8 8 0 0 0-16 0v48h-16v-80zm-40 112a8 8 0 0 1-8-8v-8h16v8a8 8 0 0 1-8 8zm40-8a8 8 0 0 1-16 0v-8h16zm0 0" data-original="#000000" class="active-path" data-old_color="#514ebc" fill="#514ebc"/><path d="M408.055 208.11c22.09 0 40-17.91 40-40 0-22.094-17.91-40-40-40-22.094 0-40 17.906-40 40 .027 22.077 17.918 39.972 40 40zm0-64c13.254 0 24 10.742 24 24 0 13.253-10.746 24-24 24s-24-10.747-24-24c0-13.258 10.746-24 24-24zm0 0M120.055 264.11a8 8 0 0 0 0 16 8 8 0 0 1 8 8v8h-24a8 8 0 0 0-8 8v32h-48v-32a8 8 0 0 0-8-8h-24v-8a8 8 0 0 1 8-8 8 8 0 0 0 0-16c-13.246.023-23.973 10.753-24 24v64c0 13.253 10.746 24 24 24a23.81 23.81 0 0 0 8-1.473v97.472a8 8 0 0 0 16 0v-24h16v24a8 8 0 0 0 16 0v-24h16v24a8 8 0 0 0 16 0v-97.472a23.81 23.81 0 0 0 8 1.472c13.254 0 24-10.746 24-24v-64c-.028-13.246-10.758-23.976-24-24zm-96 96a8 8 0 0 1-8-8v-40h16v40a8 8 0 0 1-8 8zm56 72v-48a8 8 0 0 0-16 0v48h-16v-80h48v80zm48-80a8 8 0 0 1-16 0v-40h16zm0 0" data-original="#000000" class="active-path" data-old_color="#514ebc" fill="#514ebc"/><path d="M72.055 280.11c22.09 0 40-17.91 40-40 0-22.094-17.91-40-40-40-22.094 0-40 17.906-40 40 .027 22.077 17.918 39.972 40 40zm0-64c13.254 0 24 10.742 24 24 0 13.253-10.746 24-24 24s-24-10.747-24-24c0-13.258 10.746-24 24-24zm0 0M240.055 352.11a8 8 0 0 0-8 8v104a8 8 0 0 0 16 0v-104a8 8 0 0 0-8-8zm0 0M296.055 304.11a8 8 0 0 0-8 8v48a8 8 0 0 0 16 0v-48a8 8 0 0 0-8-8zm0 0M184.055 312.11a8 8 0 0 0-16 0v48a8 8 0 0 0 16 0zm0 0M344.055 360.11a8 8 0 0 0-8 8v32a8 8 0 0 0 16 0v-32a8 8 0 0 0-8-8zm0 0M408.055 416.11a8 8 0 0 0-8 8v48a8 8 0 0 0 16 0v-48a8 8 0 0 0-8-8zm0 0M472.055 376.11a8 8 0 0 0-8 8v40a8 8 0 0 0 16 0v-40a8 8 0 0 0-8-8zm0 0M136.055 392.11a8 8 0 0 0-8 8v40a8 8 0 0 0 16 0v-40a8 8 0 0 0-8-8zm0 0M296.055 408.11a8 8 0 0 0-8 8v40a8 8 0 0 0 16 0v-40a8 8 0 0 0-8-8zm0 0M192.055 408.11a8 8 0 0 0-8 8v32a8 8 0 0 0 16 0v-32a8 8 0 0 0-8-8zm0 0" data-original="#000000" class="active-path" data-old_color="#514ebc" fill="#514ebc"/></svg>