<svg xmlns="http://www.w3.org/2000/svg" viewBox="0 0 480 480" width="512" height="512"><path d="M440 120v-8.88c21.645-22.091 21.283-57.547-.808-79.192-22.092-21.645-57.547-21.283-79.192.808-21.333 21.773-21.333 56.61 0 78.384V120h-16v16h112v-16h-16zm-10.183-21.409a39.916 39.916 0 0 1-3.153 3.153 8 8 0 0 0-2.664 5.952V120h-16V99.312l21.656-21.656-11.312-11.312L400 84.688l-18.344-18.344-11.312 11.312L392 99.312V120h-16v-12.296a8 8 0 0 0-2.664-5.96c-16.467-14.726-17.879-40.013-3.153-56.481 14.726-16.467 40.013-17.879 56.481-3.153 16.467 14.727 17.879 40.014 3.153 56.481zM64 64h16v16H64zM352 184h16v16h-16z" data-original="#000000" class="active-path" data-old_color="#514ebc" fill="#514ebc"/><path d="M72 32c-22.091 0-40 17.909-40 40s17.909 40 40 40 40-17.909 40-40c-.026-22.08-17.92-39.974-40-40zm0 64c-13.255 0-24-10.745-24-24s10.745-24 24-24 24 10.745 24 24-10.745 24-24 24z" data-original="#000000" class="active-path" data-old_color="#514ebc" fill="#514ebc"/><path d="M472 280H304V8a8 8 0 0 0-8-8H8a8 8 0 0 0-8 8v432a8 8 0 0 0 8 8h32v8c0 13.255 10.745 24 24 24s24-10.745 24-24v-8h72v24a8 8 0 0 0 8 8h304a8 8 0 0 0 8-8V288a8 8 0 0 0-8-8zm-8.8 16c-3.827 18.611-20.199 31.976-39.2 32H216c-19.001-.024-35.373-13.389-39.2-32h286.4zM72 456a8 8 0 0 1-16 0v-24h16v24zm0-40H56v-16h16v16zm0-32H56V256h16v128zM56.944 240L64 225.888 71.056 240H56.944zM160 288v144H88V240a7.997 7.997 0 0 0-.84-3.576l-16-32a8.336 8.336 0 0 0-14.32 0l-16 32A7.997 7.997 0 0 0 40 240v192H16V16h272v264H168a8 8 0 0 0-8 8zm304 176H176V327.12A55.817 55.817 0 0 0 216 344h208a55.817 55.817 0 0 0 40-16.88V464z" data-original="#000000" class="active-path" data-old_color="#514ebc" fill="#514ebc"/><path d="M472 152H328a8 8 0 0 0-8 8v96a8 8 0 0 0 8 8h144a8 8 0 0 0 8-8v-96a8 8 0 0 0-8-8zm-8 96H336v-80h128v80z" data-original="#000000" class="active-path" data-old_color="#514ebc" fill="#514ebc"/><path data-original="#000000" class="active-path" data-old_color="#514ebc" fill="#514ebc" d="M392 216h40v16h-40zM136 48h136v16H136zM136 80h104v16H136zM192 400h16v16h-16zM232 400h104v16H232zM232 432h72v16h-72zM392 184h56v16h-56z"/></svg>