<svg xmlns="http://www.w3.org/2000/svg" height="512" width="512"><path d="M503.465 153.602a8.532 8.532 0 0 0-8.531 8.53v238.934c0 9.426-7.641 17.067-17.067 17.067H34.133c-9.426 0-17.067-7.64-17.067-17.067V93.867c0-9.426 7.641-17.066 17.067-17.066h247.469c4.71 0 8.53-3.82 8.53-8.535 0-4.711-3.82-8.532-8.53-8.532H34.132C15.283 59.734 0 75.016 0 93.867v307.2c0 18.851 15.281 34.132 34.133 34.132h132.465l-10.243 25.602h-2.753c-26.72 0-42.668 12.758-42.668 34.133 0 9.425 7.64 17.066 17.066 17.066h256c9.426 0 17.066-7.64 17.066-17.066 0-21.375-15.949-34.133-42.668-34.133h-2.753l-10.243-25.602h132.465c18.852 0 34.133-15.281 34.133-34.133V162.133c0-4.711-3.82-8.531-8.535-8.531zM384 494.934H128c0-4.223 0-17.067 25.602-17.067h204.796C384 477.867 384 490.711 384 494.934zM337.246 460.8H174.738l10.239-25.602h142.046zm0 0" data-original="#000000" class="active-path" data-old_color="#514ebc" fill="#514ebc"/><path d="M477.867 341.332v-179.2c0-4.71-3.82-8.53-8.535-8.53a8.532 8.532 0 0 0-8.531 8.53v179.2a8.534 8.534 0 0 1-8.535 8.535H59.734a8.534 8.534 0 0 1-8.535-8.535V119.465c0-4.711 3.82-8.531 8.535-8.531h221.868c4.71 0 8.53-3.82 8.53-8.536 0-4.71-3.82-8.53-8.53-8.53H59.734c-14.14 0-25.601 11.46-25.601 25.597v221.867c0 14.14 11.46 25.602 25.601 25.602h392.532c14.14 0 25.601-11.461 25.601-25.602zm0 0M213.332 384a8.533 8.533 0 0 0-8.531 8.535c0 4.711 3.82 8.531 8.531 8.531h85.336a8.533 8.533 0 0 0 0-17.066zm0 0" data-original="#000000" class="active-path" data-old_color="#514ebc" fill="#514ebc"/><path d="M299.965 222.242a31.671 31.671 0 0 0 12.8-17.715c6.465-15.113 2.083-31.043-10.327-36.422l-.715-.289c-2.211-22.144-20.532-39.195-42.778-39.816h-14.422c-22.257.61-40.59 17.668-42.796 39.824l-1.059.426c-12.063 5.234-16.45 21.164-9.7 36.934a30.375 30.375 0 0 0 12.536 17.066 63.663 63.663 0 0 0 15.289 27.477v4.27a27.31 27.31 0 0 1-17.465 23.038 21.67 21.67 0 0 1-3.953.852l-19.336 2.562c-17.262 2.063-30.809 15.778-32.656 33.067a8.527 8.527 0 0 0-.317 2.218v2.645a8.493 8.493 0 0 0 1.774 5.207c3.48 6.2 10.258 9.8 17.34 9.215h183.64a18.172 18.172 0 0 0 17.34-9.215 8.493 8.493 0 0 0 1.774-5.207v-2.817a8.937 8.937 0 0 0-.317-2.132c-1.844-17.278-15.379-30.993-32.633-33.067l-23.601-2.562a17.134 17.134 0 0 1-3.668-.852 6.44 6.44 0 0 0-.555-.152c-9.883-3.328-21.148-13.887-21.148-22.863v-4.59a63.705 63.705 0 0 0 14.953-27.102zm-48.23 42.293a42.713 42.713 0 0 0 17.152-3.578 41.079 41.079 0 0 0 9.742 17.316 106.303 106.303 0 0 1-51.379-.41 42.972 42.972 0 0 0 7.758-16.742 42.658 42.658 0 0 0 16.726 3.414zm-40.739-57.652a36.67 36.67 0 0 1-4.625-9.07 13.532 13.532 0 0 1 .195-13.22 8.54 8.54 0 0 0 8.079-.675 8.535 8.535 0 0 0 3.867-7.125v-4.418c-.16-14.648 11.375-26.758 26.011-27.309h14.422c14.621.57 26.13 12.676 25.965 27.309v4.418a8.538 8.538 0 0 0 12.008 7.793 14.303 14.303 0 0 1-.113 13.898 28.194 28.194 0 0 1-4.477 8.371 8.536 8.536 0 0 0-8.023 7.125c-2.703 16.461-15.676 33.485-32.57 33.485-16.9 0-29.868-17.067-32.575-33.485a8.675 8.675 0 0 0-8.164-7.097zm97.672 87.894l23.492 2.559a20.564 20.564 0 0 1 17.528 18.227 9.685 9.685 0 0 1-1.868.171H164.18a9.685 9.685 0 0 1-1.868-.171 20.618 20.618 0 0 1 17.743-18.254l19.25-2.559a34.944 34.944 0 0 0 12.968-4.035 109.553 109.553 0 0 0 41.594 7.953 105.745 105.745 0 0 0 41.344-7.965 46.807 46.807 0 0 0 6.254 2.563c.207.066.418.129.625.18a33.36 33.36 0 0 0 6.578 1.331zm0 0M494.934 0H324.266c-9.426 0-17.067 7.64-17.067 17.066v102.399c0 9.426 7.64 17.07 17.067 17.07h8.535v9.656a17.068 17.068 0 0 0 26.531 14.234l35.762-23.89h99.84c9.425 0 17.066-7.644 17.066-17.07V17.066C512 7.641 504.36 0 494.934 0zm0 119.465h-99.84a17.037 17.037 0 0 0-9.473 2.867l-35.754 23.86v-9.657c0-9.426-7.64-17.07-17.066-17.07h-8.535V17.066h170.668zm0 0" data-original="#000000" class="active-path" data-old_color="#514ebc" fill="#514ebc"/><path d="M349.867 51.2h119.465a8.533 8.533 0 1 0 0-17.067H349.867a8.534 8.534 0 1 0 0 17.066zm0 0M349.867 85.332h119.465a8.533 8.533 0 1 0 0-17.066H349.867a8.534 8.534 0 1 0 0 17.066zm0 0" data-original="#000000" class="active-path" data-old_color="#514ebc" fill="#514ebc"/></svg>