<svg xmlns="http://www.w3.org/2000/svg" width="512" height="512"><path d="M462 118H296.422a30.047 30.047 0 0 0-24.485 12.66l-42.617 60.172a10.02 10.02 0 0 1-8.164 4.219h-6.32v-16.613c0-12.899-10.496-23.395-23.399-23.395h-45.542c-12.899 0-23.395 10.496-23.395 23.394v16.614H94v-10.008c0-16.543-13.457-30-30-30s-30 13.457-30 30v10.008h-4c-16.543 0-30 13.46-30 30V462c0 27.57 22.43 50 50 50h432c16.543 0 30-13.457 30-30V168c0-27.57-22.43-50-50-50zm-319.5 60.438a3.4 3.4 0 0 1 3.395-3.395h45.542a3.403 3.403 0 0 1 3.399 3.394v16.606H142.5zM54 185.042c0-5.516 4.484-10 10-10s10 4.484 10 10v10H54zM492 424h-61.703c6.398-18.86 9.703-38.742 9.703-59 0-28.172-6.563-55.926-18.867-81H492zM20 284h70.871C78.566 309.082 72 336.848 72 365c0 20.262 3.305 40.14 9.703 59H20zm357.578 105.434l-61.433-61.43a10 10 0 0 0-14.141 0l-69.68 69.68-31.394-31.399c-3.907-3.902-10.239-3.902-14.145 0l-45.582 45.582C135.277 397.398 132 381.578 132 365c0-68.375 55.625-124 124-124s124 55.625 124 124c0 8.363-.836 16.531-2.422 24.434zM193.855 387.5l76.157 76.156a9.968 9.968 0 0 0 7.07 2.93 9.968 9.968 0 0 0 7.07-2.93c3.907-3.906 3.907-10.238 0-14.144l-37.687-37.688 62.61-62.61 61.987 61.993C352.704 456.762 308.051 489 256 489c-44.316 0-83.273-23.375-105.203-58.438zM482 492H323.816C369.117 467.71 400 419.898 400 365c0-79.402-64.598-144-144-144s-144 64.598-144 144c0 54.898 30.883 102.71 76.184 127H50c-16.543 0-30-13.457-30-30v-18h69.828a184.705 184.705 0 0 0 13.645 23.82 10 10 0 0 0 13.886 2.68c4.575-3.094 5.778-9.309 2.684-13.883a163.977 163.977 0 0 1-14.52-26.402c-.039-.106-.085-.203-.132-.305C96.578 409.547 92 387.54 92 365c0-37.184 12.844-73.625 36.16-102.613 3.461-4.301 2.778-10.598-1.523-14.059-4.305-3.46-10.598-2.781-14.063 1.524A183.109 183.109 0 0 0 102.285 264H20v-38.95c0-5.515 4.484-10 10-10h191.156c9.715 0 18.867-4.73 24.48-12.66l42.622-60.171a10.007 10.007 0 0 1 8.16-4.219H462c16.543 0 30 13.457 30 30v96h-82.285a182.088 182.088 0 0 0-11.04-15.074c-3.488-4.281-9.788-4.922-14.07-1.434-4.28 3.488-4.921 9.79-1.433 14.07C406.922 290.704 420 327.438 420 365c0 22.586-4.602 44.64-13.453 65.043-.016.027-.027.059-.04.086a164.304 164.304 0 0 1-14.37 26.226c-3.086 4.579-1.871 10.793 2.707 13.88a10 10 0 0 0 13.883-2.71 184.35 184.35 0 0 0 13.441-23.525H492v38c0 5.516-4.484 10-10 10zm0 0" data-original="#000000" class="active-path" data-old_color="#514ebc" fill="#514ebc"/><path d="M465.668 185.043c0-16.543-13.457-30-30-30H346c-16.543 0-30 13.457-30 30s13.457 30 30 30h89.668c16.543 0 30-13.461 30-30zm-20 0c0 5.512-4.488 10-10 10h-34.836v-20h34.836c5.512 0 10 4.484 10 10zm-109.668 0c0-5.516 4.484-10 10-10h34.832v20H346c-5.516 0-10-4.488-10-10zm0 0M242.332 271.668c-16.543 0-30 13.457-30 30s13.457 30 30 30 30-13.457 30-30-13.457-30-30-30zm0 40c-5.512 0-10-4.488-10-10 0-5.516 4.488-10 10-10 5.516 0 10 4.484 10 10 0 5.512-4.484 10-10 10zm0 0M389.988 68.332c5.524 0 10-4.477 10-10V10c0-5.523-4.476-10-10-10-5.52 0-10 4.477-10 10v48.332c0 5.523 4.48 10 10 10zm0 0M389.988 83c-2.629 0-5.21 1.07-7.066 2.93-1.863 1.86-2.934 4.441-2.934 7.07s1.07 5.21 2.934 7.07a10.064 10.064 0 0 0 7.066 2.93c2.633 0 5.211-1.07 7.07-2.93 1.86-1.86 2.93-4.441 2.93-7.07s-1.066-5.21-2.93-7.07a10.073 10.073 0 0 0-7.07-2.93zm0 0M330.691 90.613a9.968 9.968 0 0 0 7.07 2.93 9.968 9.968 0 0 0 7.071-2.93c3.906-3.906 3.906-10.238 0-14.144L311.27 42.906c-3.907-3.902-10.235-3.902-14.141 0-3.906 3.907-3.906 10.239 0 14.145zm0 0M442.836 92.652a9.97 9.97 0 0 0 7.074-2.93l32.63-32.652a10 10 0 0 0-14.145-14.137l-32.633 32.649c-3.903 3.906-3.903 10.238.004 14.145a9.987 9.987 0 0 0 7.07 2.925zm0 0" data-original="#000000" class="active-path" data-old_color="#514ebc" fill="#514ebc"/></svg>